<?xml version="1.0" encoding="UTF-8" standalone="no"?>
<!-- Created with Inkscape (http://www.inkscape.org/) -->

<svg
   xmlns:dc="http://purl.org/dc/elements/1.1/"
   xmlns:cc="http://creativecommons.org/ns#"
   xmlns:rdf="http://www.w3.org/1999/02/22-rdf-syntax-ns#"
   xmlns:svg="http://www.w3.org/2000/svg"
   xmlns="http://www.w3.org/2000/svg"
   xmlns:xlink="http://www.w3.org/1999/xlink"
   xmlns:sodipodi="http://sodipodi.sourceforge.net/DTD/sodipodi-0.dtd"
   xmlns:inkscape="http://www.inkscape.org/namespaces/inkscape"
   width="48"
   height="48"
   id="svg2"
   sodipodi:version="0.32"
   inkscape:version="0.48.4 r9939"
   version="1.0"
   sodipodi:docname="frogr.svg"
   inkscape:output_extension="org.inkscape.output.svg.inkscape">
  <defs
     id="defs4">
    <linearGradient
       inkscape:collect="always"
       id="linearGradient3374">
      <stop
         style="stop-color:#acacac;stop-opacity:1"
         offset="0"
         id="stop3376" />
      <stop
         style="stop-color:#ffffff;stop-opacity:0"
         offset="1"
         id="stop3378" />
    </linearGradient>
    <linearGradient
       inkscape:collect="always"
       id="linearGradient3350">
      <stop
         style="stop-color:#fce94f;stop-opacity:1;"
         offset="0"
         id="stop3352" />
      <stop
         style="stop-color:#fef7b8;stop-opacity:1"
         offset="1"
         id="stop3354" />
    </linearGradient>
    <linearGradient
       inkscape:collect="always"
       id="linearGradient3328">
      <stop
         style="stop-color:#d4bcd1;stop-opacity:1"
         offset="0"
         id="stop3330" />
      <stop
         style="stop-color:#75507b;stop-opacity:1"
         offset="1"
         id="stop3332" />
    </linearGradient>
    <inkscape:perspective
       sodipodi:type="inkscape:persp3d"
       inkscape:vp_x="0 : 526.18109 : 1"
       inkscape:vp_y="0 : 1000 : 0"
       inkscape:vp_z="744.09448 : 526.18109 : 1"
       inkscape:persp3d-origin="372.04724 : 350.78739 : 1"
       id="perspective10" />
    <inkscape:perspective
       id="perspective2449"
       inkscape:persp3d-origin="372.04724 : 350.78739 : 1"
       inkscape:vp_z="744.09448 : 526.18109 : 1"
       inkscape:vp_y="0 : 1000 : 0"
       inkscape:vp_x="0 : 526.18109 : 1"
       sodipodi:type="inkscape:persp3d" />
    <inkscape:perspective
       id="perspective2462"
       inkscape:persp3d-origin="372.04724 : 350.78739 : 1"
       inkscape:vp_z="744.09448 : 526.18109 : 1"
       inkscape:vp_y="0 : 1000 : 0"
       inkscape:vp_x="0 : 526.18109 : 1"
       sodipodi:type="inkscape:persp3d" />
    <radialGradient
       inkscape:collect="always"
       xlink:href="#linearGradient3328"
       id="radialGradient3334"
       cx="17.5"
       cy="12.5"
       fx="17.5"
       fy="12.5"
       r="4.5"
       gradientUnits="userSpaceOnUse"
       gradientTransform="matrix(1.190592,9.7324712e-3,-8.1742077e-3,0.9999666,-3.2331823,-0.1699015)" />
    <radialGradient
       inkscape:collect="always"
       xlink:href="#linearGradient3328"
       id="radialGradient3346"
       gradientUnits="userSpaceOnUse"
       gradientTransform="matrix(1.190592,0.00973247,-0.00817421,0.9999666,-3.2331823,-0.1699015)"
       cx="17.5"
       cy="12.5"
       fx="17.5"
       fy="12.5"
       r="4.5" />
    <radialGradient
       inkscape:collect="always"
       xlink:href="#linearGradient3350"
       id="radialGradient3356"
       cx="22.165323"
       cy="23.108704"
       fx="22.165323"
       fy="23.108704"
       r="5"
       gradientTransform="matrix(-1.2284138,3.2758205,-3.1999999,-1.1999999,125.17604,-24.879178)"
       gradientUnits="userSpaceOnUse" />
    <radialGradient
       inkscape:collect="always"
       xlink:href="#linearGradient3328"
       id="radialGradient3370"
       gradientUnits="userSpaceOnUse"
       gradientTransform="matrix(1.190592,0.00973247,-0.00817421,0.9999666,-3.2331823,-0.1699015)"
       cx="17.5"
       cy="12.5"
       fx="17.5"
       fy="12.5"
       r="4.5" />
    <radialGradient
       inkscape:collect="always"
       xlink:href="#linearGradient3374"
       id="radialGradient3380"
       cx="25.209742"
       cy="35.163338"
       fx="25.209742"
       fy="35.163338"
       r="21"
       gradientTransform="matrix(0.8584645,1.9347914e-8,-1.8151937e-8,0.1904762,2.358332,31.302221)"
       gradientUnits="userSpaceOnUse" />
  </defs>
  <sodipodi:namedview
     id="base"
     pagecolor="#ffffff"
     bordercolor="#666666"
     borderopacity="1.0"
     gridtolerance="10000"
     guidetolerance="10"
     objecttolerance="10000"
     inkscape:pageopacity="0.0"
     inkscape:pageshadow="2"
     inkscape:zoom="10.895833"
     inkscape:cx="26.081027"
     inkscape:cy="24"
     inkscape:document-units="px"
     inkscape:current-layer="layer2"
     showgrid="true"
     inkscape:snap-global="true"
     borderlayer="true"
     inkscape:snap-bbox="true"
     inkscape:window-width="1366"
     inkscape:window-height="714"
     inkscape:window-x="0"
     inkscape:window-y="27"
     showguides="true"
     inkscape:window-maximized="1">
    <inkscape:grid
       type="xygrid"
       id="grid2383"
       visible="true"
       enabled="true" />
  </sodipodi:namedview>
  <metadata
     id="metadata7">
    <rdf:RDF>
      <cc:Work
         rdf:about="">
        <dc:format>image/svg+xml</dc:format>
        <dc:type
           rdf:resource="http://purl.org/dc/dcmitype/StillImage" />
        <dc:title></dc:title>
      </cc:Work>
    </rdf:RDF>
  </metadata>
  <g
     inkscape:label="Layer 1"
     inkscape:groupmode="layer"
     id="layer1"
     sodipodi:insensitive="true"
     style="display:none">
    <image
       y="6.1397924"
       x="2.9588475"
       id="image2464"
       height="33.575115"
       width="43.717598"
       sodipodi:absref="/home/aperez/Desktop/free_frogger_logo.gif"
       xlink:href="/home/aperez/Desktop/free_frogger_logo.gif" />
  </g>
  <g
     inkscape:groupmode="layer"
     id="layer2"
     inkscape:label="frogr"
     style="display:inline">
    <path
       style="fill:#ffffff;fill-opacity:1;fill-rule:evenodd;stroke:#ffffff;stroke-width:2.5;stroke-linecap:butt;stroke-linejoin:miter;stroke-miterlimit:4;stroke-opacity:1;stroke-dasharray:none"
       d="m 7,8 0,2 -2,0 c -3,0 -3,5 0,5 l 2,0 c 0,0 0,3 0,4 0,1 1,2 2,2 1,0 6,0 6,0 l 0,5 c 0,0 -5,0 -6,0 -1,0 -2,1 -2,2 0,1 0,5 0,5 l -2,0 c -3,0 -3,5 0,5 l 2,0 0,2 c 0,3 5,3 5,0 0,-2 0,-9 0,-9 l 3,0 0,0.5 c 0,3 3,7.5 9,7.5 7,0 9,-4.5 9,-7.5 0,-0.188889 0,-0.314981 0,-0.5 l 3,0 c 0,0 0,7 0,9 0,3 5,3 5,0 l 0,-2 2,0 c 3,0 3,-5 0,-5 l -2,0 c 0,0 0,-4 0,-5 0,-1 -1,-2 -2,-2 -1,0 -6,0 -6,0 0,-1.302465 0,-3.750815 0,-5 0,0 5,0 6,0 1,0 2,-1 2,-2 0,-1 0,-4 0,-4 l 2,0 c 3,0 3,-5 0,-5 l -2,0 0,-2 c 0,-3 -5,-3 -5,0 0,2 0,8 0,8 l -3,0 c 0,-0.851852 0,-0.555555 0,-1.5 0,-3 -3,-7.5 -9,-7.5 -6,0 -9,4.5 -9,7.5 l 0,1.5 -3,0 c 0,0 0,-6 0,-8 C 12,5 7,5 7,8 z"
       id="path3239"
       sodipodi:nodetypes="cccccssccsscccccscccssccscccccssccsscccccsccszccccc"
       inkscape:connector-curvature="0" />
    <path
       sodipodi:nodetypes="cccccssccsscccccscccssccscccccssccsscccccsccszccccc"
       id="path3296"
       d="m 8,8 0,3 -3,0 c -2,0 -2,3 0,3 l 3,0 c 0,0 0,3 0,4 0,2 0,2 2,2 1,0 6,0 6,0 l 0,7 c 0,0 -5,0 -6,0 -2,0 -2,0 -2,2 0,1 0,5 0,5 l -3,0 c -2,0 -2,3 0,3 l 3,0 0,3 c 0,2 3,2 3,0 0,-2 0,-10 0,-10 l 5,0 0,1.5 c 0,3 3,6.5 8,6.5 6,0 8,-3.5 8,-6.5 0,-0.188889 0,-1.314981 0,-1.5 l 5,0 c 0,0 0,8 0,10 0,2 3,2 3,0 l 0,-3 3,0 c 2,0 2,-3 0,-3 l -3,0 c 0,0 0,-4 0,-5 0,-2 0,-2 -2,-2 -1,0 -6,0 -6,0 0,-1.302465 0,-5.750815 0,-7 0,0 5,0 6,0 2,0 2,0 2,-2 0,-1 0,-4 0,-4 l 3,0 c 2,0 2,-3 0,-3 l -3,0 0,-3 c 0,-2 -3,-2 -3,0 0,2 0,9 0,9 l -5,0 c 0,-0.851852 0,-1.555555 0,-2.5 0,-3 -3,-6.5 -8,-6.5 -5,0 -8,3.5 -8,6.5 l 0,2.5 -5,0 c 0,0 0,-7 0,-9 C 11,6 8,6 8,8 z"
       style="fill:#ffffff;fill-rule:evenodd;stroke:#000000;stroke-width:1.5;stroke-linecap:butt;stroke-linejoin:miter;stroke-miterlimit:4;stroke-opacity:1;stroke-dasharray:none"
       inkscape:connector-curvature="0" />
    <path
       sodipodi:type="arc"
       style="fill:#ffffff;fill-opacity:1;stroke:#ffffff;stroke-width:1;stroke-linecap:square;stroke-linejoin:round;stroke-miterlimit:4;stroke-opacity:1;stroke-dasharray:none;stroke-dashoffset:0"
       id="path3268"
       sodipodi:cx="18"
       sodipodi:cy="13"
       sodipodi:rx="4"
       sodipodi:ry="4"
       d="m 22,13 a 4,4 0 1 1 -8,0 4,4 0 1 1 8,0 z"
       transform="translate(0.5,-2.5)" />
    <path
       transform="matrix(0.7515899,0,0,0.7515899,4.9713833,0.7293324)"
       d="m 22,13 a 4,4 0 1 1 -8,0 4,4 0 1 1 8,0 z"
       sodipodi:ry="4"
       sodipodi:rx="4"
       sodipodi:cy="13"
       sodipodi:cx="18"
       id="path3272"
       style="fill:none;stroke:#000000;stroke-width:1.99576926;stroke-linecap:square;stroke-linejoin:round;stroke-miterlimit:4;stroke-opacity:1;stroke-dasharray:none;stroke-dashoffset:0"
       sodipodi:type="arc" />
    <path
       transform="translate(11.5,-2.5)"
       d="m 22,13 a 4,4 0 1 1 -8,0 4,4 0 1 1 8,0 z"
       sodipodi:ry="4"
       sodipodi:rx="4"
       sodipodi:cy="13"
       sodipodi:cx="18"
       id="path3342"
       style="fill:#ffffff;fill-opacity:1;stroke:#ffffff;stroke-width:1;stroke-linecap:square;stroke-linejoin:round;stroke-miterlimit:4;stroke-opacity:1;stroke-dasharray:none;stroke-dashoffset:0"
       sodipodi:type="arc" />
    <path
       sodipodi:type="arc"
       style="fill:none;stroke:#000000;stroke-width:1.99576926;stroke-linecap:square;stroke-linejoin:round;stroke-miterlimit:4;stroke-opacity:1;stroke-dasharray:none;stroke-dashoffset:0"
       id="path3344"
       sodipodi:cx="18"
       sodipodi:cy="13"
       sodipodi:rx="4"
       sodipodi:ry="4"
       d="m 22,13 a 4,4 0 1 1 -8,0 4,4 0 1 1 8,0 z"
       transform="matrix(0.7515899,0,0,0.7515899,15.971383,0.7293324)" />
    <g
       id="g3410"
       style="fill:#000000"
       transform="translate(0,2)">
      <g
         id="g3405"
         style="fill:#000000">
        <path
           style="fill:#000000;fill-opacity:1;fill-rule:evenodd;stroke:none"
           d="m 22,22 c 0,0 0,-2 -2,-3 -2,-1 -2,-2 -2,-2 0,0 0,2 1,3 1,1 2.562044,1.79562 3,2 z"
           id="path3358"
           inkscape:connector-curvature="0" />
        <path
           id="path3360"
           d="m 22,26 c 0,0 0,-2 -2,-3 -2,-1 -2,-2 -2,-2 0,0 0,2 1,3 1,1 2.562044,1.79562 3,2 z"
           style="fill:#000000;fill-opacity:1;fill-rule:evenodd;stroke:none"
           inkscape:connector-curvature="0" />
        <path
           style="fill:#000000;fill-opacity:1;fill-rule:evenodd;stroke:none"
           d="m 22,30 c 0,0 0,-2 -2,-3 -2,-1 -2,-2 -2,-2 0,0 0,2 1,3 1,1 2.562044,1.79562 3,2 z"
           id="path3366"
           inkscape:connector-curvature="0" />
      </g>
      <g
         id="g3400"
         style="fill:#000000">
        <path
           style="fill:#000000;fill-opacity:1;fill-rule:evenodd;stroke:none"
           d="m 26,26 c 0,0 0,-2 2,-3 2,-1 2,-2 2,-2 0,0 0,2 -1,3 -1,1 -2.562044,1.79562 -3,2 z"
           id="path3362"
           inkscape:connector-curvature="0" />
        <path
           id="path3364"
           d="m 26,22 c 0,0 0,-2 2,-3 2,-1 2,-2 2,-2 0,0 0,2 -1,3 -1,1 -2.562044,1.79562 -3,2 z"
           style="fill:#000000;fill-opacity:1;fill-rule:evenodd;stroke:none"
           inkscape:connector-curvature="0" />
        <path
           id="path3368"
           d="m 26,30 c 0,0 0,-2 2,-3 2,-1 2,-2 2,-2 0,0 0,2 -1,3 -1,1 -2.562044,1.79562 -3,2 z"
           style="fill:#000000;fill-opacity:1;fill-rule:evenodd;stroke:none"
           inkscape:connector-curvature="0" />
      </g>
      <g
         id="g3394"
         style="fill:#000000">
        <path
           sodipodi:type="arc"
           style="fill:#000000;fill-opacity:1;stroke:none"
           id="path3386"
           sodipodi:cx="6"
           sodipodi:cy="21"
           sodipodi:rx="1"
           sodipodi:ry="1"
           d="m 7,21 c 0,0.552285 -0.4477153,1 -1,1 -0.5522847,0 -1,-0.447715 -1,-1 0,-0.552285 0.4477153,-1 1,-1 0.5522847,0 1,0.447715 1,1 z"
           transform="translate(18,-2)" />
        <path
           transform="translate(18,2)"
           d="m 7,21 c 0,0.552285 -0.4477153,1 -1,1 -0.5522847,0 -1,-0.447715 -1,-1 0,-0.552285 0.4477153,-1 1,-1 0.5522847,0 1,0.447715 1,1 z"
           sodipodi:ry="1"
           sodipodi:rx="1"
           sodipodi:cy="21"
           sodipodi:cx="6"
           id="path3388"
           style="fill:#000000;fill-opacity:1;stroke:none"
           sodipodi:type="arc" />
        <path
           sodipodi:type="arc"
           style="fill:#000000;fill-opacity:1;stroke:none"
           id="path3390"
           sodipodi:cx="6"
           sodipodi:cy="21"
           sodipodi:rx="1"
           sodipodi:ry="1"
           d="m 7,21 c 0,0.552285 -0.4477153,1 -1,1 -0.5522847,0 -1,-0.447715 -1,-1 0,-0.552285 0.4477153,-1 1,-1 0.5522847,0 1,0.447715 1,1 z"
           transform="translate(18,6)" />
        <path
           transform="translate(18,10)"
           d="m 7,21 c 0,0.552285 -0.4477153,1 -1,1 -0.5522847,0 -1,-0.447715 -1,-1 0,-0.552285 0.4477153,-1 1,-1 0.5522847,0 1,0.447715 1,1 z"
           sodipodi:ry="1"
           sodipodi:rx="1"
           sodipodi:cy="21"
           sodipodi:cx="6"
           id="path3392"
           style="fill:#000000;fill-opacity:1;stroke:none"
           sodipodi:type="arc" />
      </g>
    </g>
  </g>
</svg>
