/* XPM */
static char * frogr_xpm[] = {
"26 26 307 2",
"  	c None",
". 	c #71B333",
"+ 	c #98CA68",
"@ 	c #62AB1C",
"# 	c #75507B",
"$ 	c #B1E084",
"% 	c #8FDB45",
"& 	c #98CC67",
"* 	c #A68EAA",
"= 	c #C5B4C7",
"- 	c #BBAABB",
"; 	c #87797F",
"> 	c #AFD987",
", 	c #AED885",
"' 	c #86787E",
") 	c #BAA9BA",
"! 	c #C6B5C7",
"~ 	c #A890AB",
"{ 	c #97CC65",
"] 	c #52A008",
"^ 	c #B2E382",
"/ 	c #7AD421",
"( 	c #A6D578",
"_ 	c #896A8E",
": 	c #C5B2C6",
"< 	c #B296B2",
"[ 	c #B79DB7",
"} 	c #B8A7B7",
"| 	c #A0CE6D",
"1 	c #9DCD68",
"2 	c #B5A4B4",
"3 	c #B195B2",
"4 	c #B598B5",
"5 	c #CAB8CA",
"6 	c #8B6C90",
"7 	c #A3D474",
"8 	c #70B231",
"9 	c #B0DE84",
"0 	c #B1E182",
"a 	c #B0E57D",
"b 	c #7BD424",
"c 	c #A6D679",
"d 	c #997E9C",
"e 	c #C1ACC2",
"f 	c #C7ADC5",
"g 	c #C3A8C1",
"h 	c #C4B4C5",
"i 	c #9BB975",
"j 	c #98B96F",
"k 	c #C0B0C1",
"l 	c #B79CB7",
"m 	c #D0B7CD",
"n 	c #CAB5CA",
"o 	c #9B809E",
"p 	c #98CA69",
"q 	c #88D938",
"r 	c #73D216",
"s 	c #7CD527",
"t 	c #A7D67B",
"u 	c #6F6B5D",
"v 	c #C9B8CA",
"w 	c #C7B3C7",
"x 	c #CFBECF",
"y 	c #9B8899",
"z 	c #B2E67E",
"A 	c #AEE577",
"B 	c #998695",
"C 	c #CBBBCD",
"D 	c #C8B5C9",
"E 	c #66AE23",
"F 	c #ABDA7D",
"G 	c #BAE88D",
"H 	c #7ED529",
"I 	c #A8D67B",
"J 	c #64A622",
"K 	c #A09F91",
"L 	c #978693",
"M 	c #908485",
"N 	c #AFCF88",
"O 	c #BBEB8C",
"P 	c #B6E983",
"Q 	c #A4CB77",
"R 	c #8A827D",
"S 	c #95858F",
"T 	c #9A9D87",
"U 	c #60A41D",
"V 	c #7ED62A",
"W 	c #B1DC88",
"X 	c #73B435",
"Y 	c #7DB943",
"Z 	c #CAEFA5",
"` 	c #B1E87A",
" .	c #BBEB8B",
"..	c #C2EE97",
"+.	c #C3EE99",
"@.	c #BDEC8E",
"#.	c #B3E87F",
"$.	c #A9E56D",
"%.	c #9DE15B",
"&.	c #BEEB92",
"*.	c #7AB83E",
"=.	c #70B42F",
"-.	c #ACDA7F",
";.	c #54A208",
">.	c #ACE575",
",.	c #B4E882",
"'.	c #BCEA8E",
").	c #B5E984",
"!.	c #B2E87D",
"~.	c #BDEC8F",
"{.	c #C8F0A0",
"].	c #CCF1A6",
"^.	c #B7EA85",
"/.	c #ACE673",
"(.	c #A0E260",
"_.	c #A7E46C",
":.	c #B0E67B",
"<.	c #A8E36E",
"[.	c #A1E163",
"}.	c #76D31B",
"|.	c #B4E289",
"1.	c #9BDF59",
"2.	c #A3E166",
"3.	c #ABE474",
"4.	c #B4E782",
"5.	c #A9E272",
"6.	c #C9F0A1",
"7.	c #D0F3AD",
"8.	c #C5EF9B",
"9.	c #B9EA88",
"0.	c #ADE675",
"a.	c #9BDC5A",
"b.	c #A4E267",
"c.	c #A8E46E",
"d.	c #A0E160",
"e.	c #97DE52",
"f.	c #98DE54",
"g.	c #65AD21",
"h.	c #7EBD42",
"i.	c #84C04B",
"j.	c #87C14F",
"k.	c #8FC55C",
"l.	c #C8EEA3",
"m.	c #93D156",
"n.	c #88C54D",
"o.	c #C4EE99",
"p.	c #C99D69",
"q.	c #C59C63",
"r.	c #B8EA87",
"s.	c #81C342",
"t.	c #8ACD48",
"u.	c #C0EB96",
"v.	c #8DC458",
"w.	c #84BF4A",
"x.	c #81BF46",
"y.	c #7EBD41",
"z.	c #6AAE28",
"A.	c #C6EE9F",
"B.	c #AAE570",
"C.	c #7FBF41",
"D.	c #8FCB56",
"E.	c #C0E992",
"F.	c #BDE88C",
"G.	c #8BC94F",
"H.	c #7ABE39",
"I.	c #C0EB95",
"J.	c #68AE25",
"K.	c #69AE27",
"L.	c #C3EC9B",
"M.	c #8CCE4C",
"N.	c #A1DC67",
"O.	c #ABE175",
"P.	c #BCC16E",
"Q.	c #BAC06C",
"R.	c #A6DF6F",
"S.	c #9CDA5E",
"T.	c #87CD43",
"U.	c #BFEB93",
"V.	c #53A208",
"W.	c #5BA812",
"X.	c #60AB1A",
"Y.	c #63AB1D",
"Z.	c #6CB02D",
"`.	c #98DB56",
" +	c #5FA81A",
".+	c #A0DC65",
"++	c #B5BC63",
"@+	c #B5BC61",
"#+	c #9DDB61",
"$+	c #5EA818",
"%+	c #93DB4F",
"&+	c #BDEA91",
"*+	c #6CB02B",
"=+	c #61AB1B",
"-+	c #60AB18",
";+	c #AFDD82",
">+	c #AEE578",
",+	c #ABE472",
"'+	c #B1E67C",
")+	c #B7E886",
"!+	c #A7E36C",
"~+	c #8DD548",
"{+	c #9ADD59",
"]+	c #85C743",
"^+	c #A7E16A",
"/+	c #A7E169",
"(+	c #83C741",
"_+	c #98DD55",
":+	c #8CD444",
"<+	c #A5E369",
"[+	c #B5E883",
"}+	c #AFE57A",
"|+	c #ABE473",
"1+	c #75D319",
"2+	c #8DDA42",
"3+	c #91DB47",
"4+	c #99DF54",
"5+	c #95DE4F",
"6+	c #81CC37",
"7+	c #6AB524",
"8+	c #9BE05A",
"9+	c #AF923D",
"0+	c #9BE059",
"a+	c #6AB423",
"b+	c #81CC36",
"c+	c #95DD4D",
"d+	c #98DE53",
"e+	c #90DB47",
"f+	c #B8E18F",
"g+	c #88C250",
"h+	c #91C75C",
"i+	c #B5E783",
"j+	c #8ADA3B",
"k+	c #75C22B",
"l+	c #74BF2C",
"m+	c #97DE50",
"n+	c #75BF2D",
"o+	c #75C22C",
"p+	c #8BDA3D",
"q+	c #B4E783",
"r+	c #91C85D",
"s+	c #55A40B",
"t+	c #B6E687",
"u+	c #82D72F",
"v+	c #89D83C",
"w+	c #9DA633",
"x+	c #9EA633",
"y+	c #8AD83D",
"z+	c #89DA3B",
"A+	c #84D832",
"B+	c #B5E784",
"C+	c #59A610",
"D+	c #70B232",
"E+	c #AEDD7F",
"F+	c #AEE07C",
"G+	c #AEE479",
"H+	c #84D733",
"I+	c #80D62B",
"J+	c #8EBF2F",
"K+	c #8EBF30",
"L+	c #85D834",
"M+	c #82D62E",
"N+	c #B2E085",
"O+	c #99CA6A",
"P+	c #86D835",
"Q+	c #61AA1C",
"R+	c #B6E588",
"S+	c #84D732",
"T+	c #7CD524",
"U+	c #7ED528",
"V+	c #7ED629",
"W+	c #7DD527",
"X+	c #B7E687",
"Y+	c #70B331",
"Z+	c #66AD23",
"`+	c #A4D476",
" @	c #AFDC83",
".@	c #BCE891",
"+@	c #61AA1A",
"@@	c #A6D876",
"#@	c #B2E481",
"$@	c #A6E26B",
"%@	c #A5E269",
"&@	c #B2E580",
"*@	c #AFDF81",
"=@	c #6EB12D",
"-@	c #A4D575",
";@	c #8DB863",
">@	c #6BAC2C",
",@	c #75B538",
"'@	c #76B53A",
")@	c #69AC2B",
"!@	c #7EB24D",
"~@	c #B0DD85",
"{@	c #A4E268",
"]@	c #91C75E",
"^@	c #C3C3C3",
"/@	c #BCBCBC",
"(@	c #B4B4B4",
"_@	c #B0B0B0",
":@	c #92C75E",
"<@	c #B0DD84",
"[@	c #63AB1F",
"}@	c #81BC49",
"|@	c #7AB542",
"1@	c #83BC4B",
"2@	c #68AE26",
"      . + @       #             #       @ + .       ",
"      $ % &     * = - ; > , ' ) ! ~     { % $       ",
"    ] ^ / (   _ : < [ } | 1 2 3 4 5 6   7 / ^ ]     ",
"8 9 0 a b c   d e f g h i j k l m n o   7 / a 0 9 8 ",
"p q r r s t   u v w x y z A B C D C u   7 / r r q p ",
"E 7 F G H I   J K L M N O P Q R S T U   7 / G F 7 E ",
"    ] ^ V W X Y Z `  ...+.@.#.$.%.&.*.=.-./ ^ ]     ",
"    ;.^ b >.,.'.).!.~.{.]...^./.(._.:.<.[.}.^ ;.    ",
"      |.1.2.3.4.!.5.~.6.7.8.9.0.a.b.c.d.e.f.|.      ",
"      g.h.i.j.k.l.m.n.o.p.q.r.s.t.u.v.w.x.y.g.      ",
"              z.A.B.C.D.E.F.G.H.(.I.J.              ",
"              K.L.M.N.O.P.Q.R.S.T.U.J.              ",
"      V.W.X.Y.Z.I.`. +.+++@+#+$+%+&+*+=+-+W.V.      ",
"      ;+>+,+'+)+!+~+{+]+^+/+(+_+:+<+[+}+|+>+;+      ",
"    ;.^ 1+2+3+4+5+6+7+8+9+9+0+a+b+c+d+e+2+1+^ ;.    ",
"    ;.^ / f+g+h+i+j+k+l+m+m+n+o+p+q+r+g+f+/ ^ ;.    ",
"    ] ^ / 7   s+t+u+q v+w+x+y+z+A+B+C+  7 / ^ ]     ",
"D+E+F+G+/ 7     F H+I+A+J+K+L+u+M+N+    7 / G+F+E+D+",
"O+P+r r / 7     Q+R+S+T+U+V+W+I+X+Y+    7 / r r P+O+",
"Z+`+ @.@/ 7       +@@@#@$@%@&@*@=@      7 / .@ @`+Z+",
"    ] ^ / -@        ;@>@,@'@)@!@        -@/ ^ ]     ",
"      ~@{@]@        ^@/@(@_@(@/@^@      :@{@<@      ",
"      [@}@                              |@1@2@      ",
"                                                    ",
"                                                    ",
"                                                    "};
